<?xml version="1.0" encoding="utf-8"?>
<!-- Generator: Adobe Illustrator 22.0.1, SVG Export Plug-In . SVG Version: 6.00 Build 0)  -->
<svg version="1.1" id="图层_2" xmlns="http://www.w3.org/2000/svg" xmlns:xlink="http://www.w3.org/1999/xlink" x="0px" y="0px"
	 viewBox="0 0 100.7 99.9" style="enable-background:new 0 0 100.7 99.9;" xml:space="preserve">
<style type="text/css">
	.st0{clip-path:url(#SVGID_2_);fill:url(#SVGID_3_);}
	.st1{opacity:0.3;clip-path:url(#SVGID_5_);}
	.st2{clip-path:url(#SVGID_7_);}
	.st3{clip-path:url(#SVGID_5_);fill:#FFFFFF;}
</style>
<g>
	<defs>
		<path id="SVGID_1_" d="M2.4,50c0,26.5,21.5,48,48,48c2.2,0,4.3-0.1,6.4-0.4C80.2,94.3,98.3,74.3,98.3,50c0-0.8,0-1.5-0.1-2.3v0
			c0-0.1,0-0.1,0-0.2C96.9,22.2,76,2,50.3,2C23.8,2,2.4,23.5,2.4,50"/>
	</defs>
	<clipPath id="SVGID_2_">
		<use xlink:href="#SVGID_1_"  style="overflow:visible;"/>
	</clipPath>
	
		<linearGradient id="SVGID_3_" gradientUnits="userSpaceOnUse" x1="-74.1804" y1="165.8588" x2="-73.1804" y2="165.8588" gradientTransform="matrix(0 95.9 95.9 0 -15855.5283 7115.9194)">
		<stop  offset="0" style="stop-color:#55AAFF"/>
		<stop  offset="1" style="stop-color:#165DE3"/>
	</linearGradient>
	<rect x="2.4" y="2" class="st0" width="95.9" height="95.9"/>
</g>
<g>
	<defs>
		<rect id="SVGID_4_" width="100.7" height="99.9"/>
	</defs>
	<clipPath id="SVGID_5_">
		<use xlink:href="#SVGID_4_"  style="overflow:visible;"/>
	</clipPath>
	<g class="st1">
		<g>
			<defs>
				<rect id="SVGID_6_" x="26.3" y="20.3" width="72" height="77.2"/>
			</defs>
			<clipPath id="SVGID_7_">
				<use xlink:href="#SVGID_6_"  style="overflow:visible;"/>
			</clipPath>
			<path class="st2" d="M98.3,50c0,24.3-18.1,44.4-41.5,47.5c0,0,0,0,0,0c-0.1-0.1-0.1-0.1-0.2-0.2c-0.1-0.1-0.1-0.1-0.2-0.2
				c-0.1-0.1-0.1-0.1-0.2-0.2c-0.1-0.1-0.1-0.1-0.2-0.2c-0.1-0.1-0.1-0.1-0.2-0.2c-0.1-0.1-0.1-0.1-0.2-0.2
				c-0.1-0.1-0.1-0.1-0.2-0.2c-0.1-0.1-0.1-0.1-0.2-0.2c-0.1-0.1-0.1-0.1-0.2-0.2c-0.1-0.1-0.1-0.1-0.2-0.2
				c-0.1-0.1-0.1-0.1-0.2-0.2c-0.1-0.1-0.1-0.1-0.2-0.2c-0.1-0.1-0.1-0.1-0.2-0.2c-0.1-0.1-0.1-0.1-0.2-0.2
				c-0.1-0.1-0.1-0.1-0.2-0.2c-0.1-0.1-0.1-0.1-0.2-0.2c-0.1-0.1-0.1-0.1-0.2-0.2c-0.1-0.1-0.1-0.1-0.2-0.2
				c-0.1-0.1-0.1-0.1-0.2-0.2c-0.1-0.1-0.1-0.1-0.2-0.2c-0.1-0.1-0.1-0.1-0.2-0.2c-0.1-0.1-0.1-0.1-0.2-0.2
				c-0.1-0.1-0.1-0.1-0.2-0.2c-0.1-0.1-0.1-0.1-0.2-0.2c-0.1-0.1-0.1-0.1-0.2-0.2c-0.1-0.1-0.1-0.1-0.2-0.2
				c-0.1-0.1-0.1-0.1-0.2-0.2c-0.1-0.1-0.1-0.1-0.2-0.2c-0.1-0.1-0.1-0.1-0.2-0.2c-0.1-0.1-0.1-0.1-0.2-0.2
				c-0.1-0.1-0.1-0.1-0.2-0.2c-0.1-0.1-0.1-0.1-0.2-0.2c-0.1-0.1-0.1-0.1-0.2-0.2c-0.1-0.1-0.1-0.1-0.2-0.2
				c-0.1-0.1-0.1-0.1-0.2-0.2c-0.1-0.1-0.1-0.1-0.2-0.2c-0.1-0.1-0.1-0.1-0.2-0.2c-0.1-0.1-0.1-0.1-0.2-0.2
				c-0.1-0.1-0.1-0.1-0.2-0.2c-0.1-0.1-0.1-0.1-0.2-0.2c-0.1-0.1-0.1-0.1-0.2-0.2c-0.1-0.1-0.1-0.1-0.2-0.2
				c-0.1-0.1-0.1-0.1-0.2-0.2c-0.1-0.1-0.1-0.1-0.2-0.2c-0.1-0.1-0.1-0.1-0.2-0.2c-0.1-0.1-0.1-0.1-0.2-0.2
				c-0.1-0.1-0.1-0.1-0.2-0.2c-0.1-0.1-0.1-0.1-0.2-0.2c-0.1-0.1-0.1-0.1-0.2-0.2c-0.1-0.1-0.1-0.1-0.2-0.2
				c-0.1-0.1-0.1-0.1-0.2-0.2c-0.1-0.1-0.1-0.1-0.2-0.2c-0.1-0.1-0.1-0.1-0.2-0.2c-0.1-0.1-0.1-0.1-0.2-0.2
				c-0.1-0.1-0.1-0.1-0.2-0.2c-0.1-0.1-0.1-0.1-0.2-0.2c-0.1-0.1-0.1-0.1-0.2-0.2c-0.1-0.1-0.1-0.1-0.2-0.2
				c-0.1-0.1-0.1-0.1-0.2-0.2c-0.1-0.1-0.1-0.1-0.2-0.2c-0.8-0.8-1.3-2.2-1.3-2.9c0-3.4,0.3-9.5,0.9-15.6c0-0.1,0-0.2,0-0.3
				c0.2-1.8,0.3-5.4,0.5-11c0,0,0,0,0-0.1c-0.1,0-0.2-0.1-0.2-0.2c-0.1,0-0.2-0.1-0.2-0.2c-0.1,0-0.2-0.1-0.2-0.2
				c-0.1,0-0.2-0.1-0.2-0.2c-0.1,0-0.2-0.1-0.2-0.2c-0.1,0-0.2-0.1-0.2-0.2c-0.1,0-0.2-0.1-0.2-0.2c-0.1,0-0.2-0.1-0.2-0.2
				c-0.1,0-0.2-0.1-0.2-0.2c-0.1,0-0.2-0.1-0.2-0.2c-0.1,0-0.2-0.1-0.2-0.2c-0.1,0-0.2-0.1-0.2-0.2c-0.1,0-0.2-0.1-0.2-0.2
				c-0.1,0-0.2-0.1-0.2-0.2c-0.1,0-0.2-0.1-0.2-0.2c-0.1,0-0.2-0.1-0.2-0.2c-0.1,0-0.2-0.1-0.2-0.2c-0.1,0-0.2-0.1-0.2-0.2
				c-0.1,0-0.2-0.1-0.2-0.2c-0.1,0-0.2-0.1-0.2-0.2c-0.1,0-0.2-0.1-0.2-0.2c-0.1,0-0.2-0.1-0.2-0.2c-0.1,0-0.2-0.1-0.2-0.2
				c-0.1,0-0.2-0.1-0.2-0.2c-0.1,0-0.2-0.1-0.2-0.2c-0.1,0-0.2-0.1-0.2-0.2c-0.1,0-0.2-0.1-0.2-0.2c-0.1,0-0.2-0.1-0.2-0.2
				c-0.1,0-0.2-0.1-0.2-0.2c-0.1,0-0.2-0.1-0.2-0.2c-0.1,0-0.2-0.1-0.2-0.2c-0.1,0-0.2-0.1-0.2-0.2c-0.1,0-0.2-0.1-0.2-0.2
				c-0.1,0-0.2-0.1-0.2-0.2c-0.1,0-0.2-0.1-0.2-0.2c-0.1,0-0.2-0.1-0.2-0.2c-0.1,0-0.2-0.1-0.2-0.2c-0.1,0-0.2-0.1-0.2-0.2
				c-0.1,0-0.2-0.1-0.2-0.2c-0.1,0-0.2-0.1-0.2-0.2c-0.1,0-0.2-0.1-0.2-0.2c-0.1,0-0.2-0.1-0.2-0.2c-0.1,0-0.2-0.1-0.2-0.2
				c-0.1,0-0.2-0.1-0.2-0.2c-0.1,0-0.2-0.1-0.2-0.2c-0.1,0-0.2-0.1-0.2-0.2c-0.1,0-0.2-0.1-0.2-0.2c-0.1,0-0.2-0.1-0.2-0.2
				c-0.1,0-0.2-0.1-0.2-0.2c-0.1,0-0.2-0.1-0.2-0.2c-0.1,0-0.2-0.1-0.2-0.2c-0.1,0-0.2-0.1-0.2-0.2c-0.1,0-0.2-0.1-0.2-0.2
				c-0.1,0-0.2-0.1-0.2-0.2c-0.1,0-0.2-0.1-0.2-0.2c-0.1,0-0.2-0.1-0.2-0.2c-0.1,0-0.2-0.1-0.2-0.2c-0.1,0-0.2-0.1-0.2-0.2
				c-0.1,0-0.2-0.1-0.2-0.2c-0.1,0-0.2-0.1-0.2-0.2c-0.1,0-0.2-0.1-0.2-0.2c-0.1,0-0.2-0.1-0.2-0.2c-0.1,0-0.2-0.1-0.2-0.2
				c-0.1,0-0.2-0.1-0.2-0.2c-0.1,0-0.2-0.1-0.2-0.2c-0.1,0-0.2-0.1-0.2-0.2c-0.1,0-0.2-0.1-0.2-0.2c-0.1,0-0.2-0.1-0.2-0.2
				c-0.1,0-0.2-0.1-0.2-0.2c-0.1,0-0.2-0.1-0.2-0.2c-0.1,0-0.2-0.1-0.2-0.2c-0.1,0-0.2-0.1-0.2-0.2c-0.1,0-0.2-0.1-0.2-0.2
				c-0.1,0-0.2-0.1-0.2-0.2c-0.1,0-0.2-0.1-0.2-0.2c-0.1,0-0.2-0.1-0.2-0.2c-0.1,0-0.2-0.1-0.2-0.2c-0.1,0-0.2-0.1-0.2-0.2
				c-0.1,0-0.2-0.1-0.2-0.2c-0.1,0-0.2-0.1-0.2-0.2c-0.1,0-0.2-0.1-0.2-0.2c-0.1,0-0.2-0.1-0.2-0.2c-0.1,0-0.2-0.1-0.2-0.2
				c-0.1,0-0.2-0.1-0.2-0.2c-0.1,0-0.2-0.1-0.2-0.2c-0.1,0-0.2-0.1-0.2-0.2c-0.3-0.2-0.3-0.7-0.2-0.9c1.5-3.6,4.2-6.8,8.8-9.4
				c3.9-2.2,8.3-3.9,13.1-5c6-1.3,12-1.5,17.7-0.6l0.2-1.1l6.1,1.1l0,0.2l0.2,0l0,0.2l0.2,0l0,0.2l0.2,0l0,0.2l0.2,0l0,0.2l0.2,0
				l0,0.2l0.2,0l0,0.2l0.2,0l0,0.2l0.2,0l0,0.2l0.2,0l0,0.2l0.2,0l0,0.2l0.2,0l0,0.2l0.2,0l0,0.2l0.2,0l0,0.2l0.2,0l0,0.2l0.2,0
				l0,0.2l0.2,0l0,0.2l0.2,0l0,0.2l0.2,0l0,0.2l0.2,0l0,0.2l0.2,0l0,0.2l0.2,0l0,0.2l0.2,0l0,0.2l0.2,0l0,0.2l0.2,0l0,0.2l0.2,0
				l0,0.2l0.2,0l0,0.2l0.2,0l0,0.2l0.2,0l0,0.2l0.2,0l0,0.2l0.2,0l0,0.2l0.2,0l0,0.2l0.2,0l0,0.2l0.2,0l0,0.2l0.2,0l0,0.2l0.2,0
				l0,0.2l0.2,0l0,0.2l0.2,0l0,0.2l0.2,0l0,0.2l0.2,0l0,0.2l0.2,0l0,0.2l0.2,0l0,0.2l0.2,0l0,0.2l0.2,0l0,0.2l0.2,0l0,0.2l0.2,0
				l0,0.2l0.2,0l0,0.2l0.2,0l0,0.2l0.2,0l0,0.2l0.2,0l0,0.2l0.2,0l0,0.2l0.2,0l0,0.2l0.2,0l0,0.2l0.2,0l0,0.2l0.2,0l0,0.2l0.2,0
				l0,0.2l0.2,0l0,0.2l0.2,0l0,0.2l0.2,0l0,0.2l0.2,0l0,0.2l0.2,0l0,0.2l0.2,0l0,0.2l0.2,0l0,0.2l0.2,0l0,0.2l0.2,0l0,0.2l0.2,0
				l0,0.2l0.2,0l0,0.2l0.2,0l0,0.2l0.2,0l0,0.2l0.2,0l0,0.2l0.2,0l0,0.2l0.2,0l0,0.2l0.2,0l0,0.2l0.2,0l0,0.2l0.2,0l0,0.2l0.2,0
				l0,0.2l0.2,0l0,0.2l0.2,0l0,0.2l0.2,0l0,0.2l0.2,0l0,0.2l0.2,0l0,0.2l0.2,0l0,0.2l0.2,0l0,0.2l0.2,0l0,0.2l0.2,0l0,0.2l0.2,0
				l0,0.2l0.2,0l0,0.2l0.2,0l0,0.2l0.2,0l0,0.2l0.2,0l0,0.2l0.2,0l0,0.2l0.2,0l0,0.2l0.2,0l0,0.2l0.2,0l0,0.2l0.2,0l0,0.2l0.2,0
				l0,0.2l0.2,0l0,0.2l0.2,0l0,0.2l0.2,0l0,0.2l0.2,0l0,0.2l0.2,0l0,0.2l0.2,0l0,0.2l0.2,0l0,0.2l0.2,0l0,0.2l0.2,0l0,0.2l0.2,0
				l0,0.2l0.2,0l0,0.2l0.2,0l0,0.2l0.2,0l0,0.2l0.2,0l0,0.2l0.2,0l0,0.2l0.2,0l0,0.2l0.2,0l0,0.2l0.2,0l0,0.2l0.2,0l0,0.2l0.2,0
				l0,0.2l0.2,0l0,0.2l0.2,0l0,0.2l0.2,0l0,0.2l0.2,0l0,0.2l0.2,0l0,0.2l0.2,0l0,0.2l0.2,0l0,0.2l0.2,0l0,0.2l0.2,0l0,0.2l0.2,0
				l0,0.2l0.2,0l0,0l0,0.2l0,0h0C98.3,48.4,98.3,49.2,98.3,50"/>
		</g>
	</g>
	<path class="st3" d="M72.2,21.4L69.8,34l-6.1-1.1l0.2-1.2c-5.8-1.2-9.2,0-10.1,3.5c-0.4,1.4-0.3,6.2-0.1,12.3h0
		c0.6,11.6,0.9,20.5,0.9,26.8v0.4c0.1,3.4,0,6.2-0.1,8.1c0,0.2,0,0.4-0.1,0.6c0,0.2,0,0.3-0.1,0.5c-0.1,0.8-0.9,1.6-2.6,2
		c-2.5,0.6-5.9-0.1-7.1-0.7C43.6,84.8,43,83,43,82.1c0-3.4,0.3-9.5,0.9-15.6c0-0.1,0-0.2,0-0.3c0-0.1,0-0.3,0-0.4c0,0,0-0.1,0-0.1
		c0-0.3,0-0.5,0.1-0.8c0.2-3.1,0.4-9.1,0.6-17.9v0c0-6-0.3-11.3-1.1-12.8c-1.4-2.5-4.8-1.1-6.9-0.3c-2,0.8-7.6,3.2-9.7,3.6
		c-0.8,0.2-0.8-0.6-0.7-0.9c1.5-3.6,4.2-6.8,8.8-9.4c3.9-2.2,8.3-3.9,13-5c6-1.4,12-1.5,17.7-0.6l0.2-1.1L72.2,21.4z"/>
</g>
</svg>
